<svg width="56" height="75" viewBox="0 0 56 75" fill="none" xmlns="http://www.w3.org/2000/svg">
<path d="M7.21719 47.3001L7.21717 47.3001C3.19289 42.2476 1 35.9688 1 29.4968V28.125C1 13.1401 13.0925 1 28 1C42.9075 1 55 13.1401 55 28.125V29.4968C55 35.9688 52.8071 42.2476 48.7829 47.3001L49.5651 47.9231L48.7829 47.3001L28 73.3949L7.21719 47.3001ZM28 38.5C33.7111 38.5 38.3333 33.8508 38.3333 28.125C38.3333 22.3992 33.7111 17.75 28 17.75C22.2889 17.75 17.6667 22.3992 17.6667 28.125C17.6667 33.8508 22.2889 38.5 28 38.5Z" fill="#00C0F3" stroke="white" stroke-width="2"/>
</svg>
